<svg xmlns="http://www.w3.org/2000/svg" xmlns:xlink="http://www.w3.org/1999/xlink" width="128" height="128" version="1.1" viewBox="0 0 128 128"><title>check</title><desc>Created with Sketch.</desc><g id="Page-1" fill="none" fill-rule="evenodd" stroke="none" stroke-width="1"><g id="check" fill="#7EC466"><path id="Shape" d="M64,11 C34.73075,11 11,34.73075 11,64 C11,93.2736667 34.73075,117 64,117 C93.26925,117 117,93.2736667 117,64 C117,34.73075 93.26925,11 64,11 L64,11 Z M98.2468333,53.22775 L60.2325833,91.242 C59.45525,92.02375 58.1920833,92.02375 57.4191667,91.242 L51.8011667,85.5665833 C51.02825,84.78925 49.7606667,83.51725 48.9921667,82.7310833 L35.9188333,68.9864167 C35.5345833,68.6021667 35.3314167,68.0589167 35.3314167,67.5421667 C35.3314167,67.03425 35.5345833,66.5395833 35.9188333,66.1553333 L41.64725,60.99225 C42.0359167,60.59475 42.5526667,60.4004167 43.065,60.4004167 C43.5685,60.4048333 44.072,60.6035833 44.45625,60.99225 L57.4235833,74.2201667 C58.1965,75.0063333 59.4596667,75.0063333 60.237,74.2201667 L89.82425,44.7124167 C90.6015833,43.9306667 91.8603333,43.9306667 92.63325,44.7124167 L98.25125,50.3878333 C99.0241667,51.1651667 99.0241667,52.446 98.2468333,53.22775 L98.2468333,53.22775 Z"/></g></g></svg>