<?xml version="1.0" standalone="no"?>
<!DOCTYPE svg PUBLIC "-//W3C//DTD SVG 20010904//EN"
 "http://www.w3.org/TR/2001/REC-SVG-20010904/DTD/svg10.dtd">
<svg version="1.0" xmlns="http://www.w3.org/2000/svg"
 width="350.000000pt" height="350.000000pt" viewBox="0 0 350.000000 350.000000"
 preserveAspectRatio="xMidYMid meet">
<metadata>
Created by potrace 1.15, written by Peter Selinger 2001-2017
</metadata>
<g transform="translate(0.000000,350.000000) scale(0.100000,-0.100000)"
fill="#000000" stroke="none">
<path d="M0 1750 l0 -1750 1750 0 1750 0 0 1750 0 1750 -1750 0 -1750 0 0
-1750z m2083 1497 c600 -143 1047 -636 1128 -1244 16 -124 6 -393 -20 -504
-131 -572 -558 -998 -1130 -1130 -60 -14 -139 -22 -261 -26 -203 -6 -346 13
-510 67 -138 46 -357 157 -340 173 3 3 91 42 195 87 105 46 192 84 193 86 3 2
-158 388 -183 442 -1 1 -136 -54 -301 -123 l-299 -125 -17 23 c-113 149 -217
414 -247 631 -14 100 -14 312 0 412 79 570 499 1054 1049 1210 162 46 231 54
440 50 166 -3 211 -8 303 -29z"/>
<path d="M2165 2628 c-16 -6 -31 -11 -32 -12 -3 -3 365 -1137 371 -1143 3 -3
24 -1 45 6 42 12 81 52 81 82 0 10 -42 147 -94 306 -52 158 -126 388 -166 511
-41 129 -79 231 -91 243 -21 21 -66 24 -114 7z"/>
<path d="M1255 1915 c-30 -30 -31 -54 -4 -89 41 -52 119 -25 119 42 0 66 -69
94 -115 47z"/>
<path d="M1055 1840 c-97 -38 -106 -83 -47 -250 34 -96 40 -107 74 -125 37
-20 69 -17 140 10 14 5 21 -2 33 -33 29 -72 40 -72 290 9 121 39 223 74 227
78 4 3 -12 67 -37 141 -32 98 -48 134 -59 132 -8 -1 -119 -36 -246 -78 -128
-41 -235 -72 -239 -69 -3 4 -20 50 -36 103 -17 52 -35 97 -40 98 -6 2 -32 -6
-60 -16z"/>
</g>
</svg>
